<svg width="230" height="99" viewBox="0 0 230 99" fill="none" xmlns="http://www.w3.org/2000/svg">
<path d="M223.266 38.4484C222.211 38.8794 221.147 39.2979 220.104 39.754C218.888 40.2855 217.634 40.6244 216.308 40.7541C215.869 40.796 215.456 41.0722 215.012 41.1391C212.002 41.5952 208.971 41.8756 205.931 41.6455C204.339 41.5241 202.76 41.1852 201.19 40.8922C200.35 40.7374 199.995 40.3106 200.109 39.4611C200.291 38.1262 200.489 36.7704 201.688 35.8372C202.098 35.5192 202.499 35.3267 203.026 35.4104C204.491 35.6489 205.956 35.8707 207.421 36.0966C207.789 36.151 208.156 36.218 208.523 36.2347C209.355 36.2682 210.094 36.0464 210.643 35.3769C210.706 35.2974 210.778 35.2262 210.85 35.1551C212.154 33.9081 212.483 32.4937 211.677 30.8324C211.424 30.3093 211.318 29.7193 211.137 29.1627C210.896 28.422 210.398 27.8822 209.705 27.5516C209.097 27.2629 208.468 27.0118 207.835 26.7858C206.674 26.3674 205.724 25.6769 204.99 24.7019C204.867 24.5387 204.833 24.3085 204.724 24.1286C204.601 23.9319 204.462 23.6264 204.297 23.6055C204.061 23.5762 203.685 23.685 203.567 23.865C203.25 24.3504 203.014 24.8944 202.786 25.4342C202.051 27.1959 201.316 28.9577 200.628 30.7361C200.367 31.4182 200.253 32.1547 200.037 32.8577C199.877 33.3808 199.662 33.8913 199.459 34.4019C199.269 34.8831 199.066 35.356 198.859 35.833C198.716 36.1678 198.585 36.5151 198.395 36.8248C197.69 37.963 196.968 39.0928 196.242 40.2227C195.313 41.6622 193.92 42.5033 192.366 43.1143C191.661 43.3905 190.939 43.6248 190.217 43.8591C189.998 43.9303 189.753 43.9763 189.525 43.9596C188.148 43.8424 186.768 43.7043 185.392 43.5704C184.703 43.5034 184.239 43.198 183.952 42.5159C183.635 41.7668 183.2 41.0554 182.753 40.3692C182.069 39.3272 181.17 39.277 180.351 40.2143C179.278 41.4404 178.231 42.6833 177.188 43.9303C176.72 44.491 176.179 44.8425 175.432 44.9974C173.22 45.4535 171.02 45.5999 168.808 45.0434C168.711 45.0183 168.58 45.0225 168.521 44.9597C167.917 44.3362 167.009 44.014 166.684 43.1143C166.591 42.8548 166.431 42.6205 166.275 42.3234C166.165 42.4447 166.076 42.5033 166.043 42.5828C165.726 43.3737 165.063 43.8215 164.392 44.2901C163.328 45.0308 162.264 45.7924 161.027 46.2067C159.706 46.6503 158.359 47.052 156.995 47.3324C156.011 47.5332 155.032 47.2696 154.09 46.8804C153.157 46.4955 152.566 45.7631 151.942 45.0476C151.823 44.9137 151.714 44.7714 151.562 44.5873C151.279 44.9178 151.068 45.2484 150.781 45.4911C149.594 46.4913 148.382 47.4286 146.782 47.7467C145.832 47.935 144.967 48.4413 143.958 48.458C142.797 48.4748 141.64 48.6129 140.479 48.6087C139.884 48.6087 139.28 48.458 138.697 48.3032C138.094 48.14 137.739 47.7132 137.393 47.1608C136.033 44.9806 136.021 42.5075 135.691 40.1013C135.645 39.7582 135.751 39.3648 135.877 39.0301C136.19 38.2183 136.625 37.4525 136.891 36.6281C137.292 35.3853 137.452 34.1006 136.924 32.8494C136.544 31.9497 135.582 31.6107 134.784 32.1254C133.771 32.7824 132.783 33.4896 131.833 34.2345C130.862 34.9961 130.579 36.1887 130.089 37.2474C129.376 38.7957 128.624 40.3315 127.97 41.9049C127.598 42.7962 127.362 43.742 127.113 44.6793C126.847 45.6794 126.644 46.7005 126.408 47.709C126.125 48.9225 125.377 49.6046 124.115 49.7804C123.14 49.9185 122.173 50.0357 121.206 49.7595C120.56 49.5753 120.383 49.3661 120.484 48.7049C120.67 47.483 120.906 46.2737 121.122 45.0559C121.134 44.9932 121.139 44.9304 121.151 44.8174C119.838 45.4033 118.479 45.5581 117.103 45.5623C116.516 45.5623 115.929 45.4744 115.342 45.3907C114.586 45.2861 113.957 45.5163 113.501 46.0979C112.86 46.9139 112.268 47.7634 111.661 48.6003C111.61 48.6673 111.585 48.7593 111.525 48.8096C110.335 49.8055 109.262 50.973 107.717 51.4835C107.092 51.6886 106.484 51.9355 105.86 52.1447C105.657 52.2158 105.437 52.2661 105.222 52.2828C104.247 52.3456 103.267 52.3581 102.296 52.4502C101.114 52.5632 100.131 52.2661 99.4001 51.2869C98.8217 50.5127 98.0449 49.9227 97.5425 49.0648C96.9768 48.094 96.2379 48.0438 95.4316 48.864C94.7561 49.5544 94.1903 50.3453 93.5866 51.0985C92.244 52.7724 90.7833 54.2287 88.3726 54.0947C87.8195 54.0613 87.2538 54.191 86.7049 54.1324C85.6706 54.0194 84.632 53.8897 83.6229 53.647C82.9095 53.4754 82.4619 52.8728 82.0777 52.2661C81.8751 51.9438 81.6851 51.6133 81.4867 51.2827C81.3938 51.3287 81.3305 51.3371 81.3136 51.3705C80.5241 52.831 79.0126 53.4336 77.7292 54.2956C77.3577 54.5467 76.851 54.6136 76.3993 54.7266C75.9602 54.8354 75.4916 54.8522 75.061 54.9819C73.7311 55.3836 72.3589 55.4004 71.0079 55.279C70.1256 55.1995 69.2981 54.781 68.8379 53.9399C68.5086 53.3373 68.2342 52.7096 67.9429 52.0903C67.8457 51.8769 67.8035 51.6384 67.6895 51.4375C67.4278 50.9856 67.1365 50.5504 66.8536 50.1068C66.2921 50.4248 65.5702 50.6173 65.2071 51.086C64.4049 52.1196 63.493 53.0235 62.5346 53.8981C61.8929 54.4839 61.2723 55.0907 60.5883 55.6221C60.2168 55.9109 59.7566 56.1536 59.3007 56.2582C58.0172 56.5428 56.7169 56.7478 55.4207 56.9654C55.1632 57.0073 54.8592 57.024 54.627 56.9277C53.9431 56.6474 53.2507 56.3586 52.6301 55.9653C52.3345 55.7812 52.153 55.3752 51.9968 55.0363C51.8237 54.6639 51.7393 54.2538 51.5704 53.7223C51.2284 54.1199 50.954 54.4212 50.7049 54.7434C50.3502 55.1911 50.0927 55.7477 49.6536 56.0824C48.9908 56.5888 48.5686 57.409 47.6693 57.6057C47.6356 57.614 47.606 57.6266 47.5765 57.6475C46.1537 58.7439 44.5029 58.9364 42.7846 58.8108C42.2696 58.7732 41.7545 58.6769 41.2436 58.5807C40.6146 58.4593 39.9813 58.3463 39.3691 58.1622C39.0314 58.0618 38.6767 57.8902 38.4276 57.6517C38.0054 57.2541 37.6761 56.7645 37.2793 56.3377C35.9747 54.9191 35.1346 53.2495 34.3788 51.4919C33.6991 49.9185 33.4627 48.2446 32.9814 46.6335C32.7956 46.0059 32.517 45.3614 32.1159 44.8509C31.2715 43.7838 29.739 43.8047 28.9411 44.9011C28.4766 45.5414 28.1558 46.2988 27.8687 47.0395C26.9779 49.3326 26.1588 51.6509 25.2596 53.9399C24.7783 55.166 24.0183 56.208 22.9249 57.0198C21.8863 57.7898 20.9152 58.6518 19.9527 59.5138C18.0106 61.2547 15.621 62.0497 13.1765 62.7486C11.5553 63.2131 9.86657 63.2926 8.26225 62.9452C6.98302 62.6691 5.80089 61.9367 4.59343 61.3635C4.20502 61.1793 3.85882 60.8864 3.52952 60.6019C2.70203 59.8821 2.07719 59.0242 1.80699 57.9446C1.60856 57.1495 1.35102 56.367 1.18215 55.5677C0.781067 53.6679 1.0386 51.8518 1.9252 50.111C2.31783 49.3368 2.58381 48.4999 2.97645 47.7257C3.18332 47.3198 3.4873 46.939 3.82083 46.6252C4.395 46.0854 4.98607 45.5455 5.64468 45.1229C6.34129 44.6751 7.12234 44.3446 7.87806 43.9889C9.57526 43.1896 11.34 42.6581 13.2441 42.7544C15.393 42.8674 15.3297 43.1645 15.4057 44.943C15.4268 45.4074 15.3424 45.8761 15.279 46.3364C15.1777 47.0562 14.7513 47.5374 14.0462 47.7048C13.2272 47.8973 12.3997 48.0982 11.568 48.1735C10.483 48.2697 9.49082 48.525 8.58311 49.1443C8.11026 49.4665 7.80207 49.8599 7.62475 50.3872C7.43476 50.9395 7.24478 51.4961 7.0168 52.0317C6.72126 52.7264 6.74659 53.4085 6.91125 54.1366C7.32499 55.9862 8.68022 56.6139 10.3479 56.8775C11.1458 57.0031 11.9311 56.9738 12.6615 56.5637C12.691 56.5469 12.7248 56.5344 12.7543 56.5302C14.5402 56.2833 15.7054 55.0991 16.8749 53.8981C17.8333 52.9147 18.8339 51.969 19.8429 51.0358C20.7379 50.2072 21.329 49.2406 21.5528 48.0354C21.7723 46.8553 22.0045 45.6711 22.3 44.5078C22.4394 43.9512 22.7349 43.4281 22.9629 42.8925C23.0726 42.633 23.2415 42.3903 23.3133 42.1183C23.6215 40.9592 23.917 39.7917 24.1957 38.6242C24.4152 37.6994 24.6263 36.7662 24.8078 35.833C25.2976 33.272 25.7704 30.7068 26.2559 28.1458C26.2855 27.9994 26.3319 27.8529 26.3868 27.7148C26.8934 26.4762 27.3621 25.2208 27.932 24.0156C28.16 23.5344 28.5611 23.0992 28.9748 22.7477C29.9079 21.9526 30.8789 21.2035 31.8668 20.4712C32.821 19.764 34.877 20.0193 35.6665 20.9064C36.1352 21.4295 36.1858 22.0656 35.9029 22.6431C35.5525 23.3586 35.0881 24.0198 34.6406 24.6852C34.3366 25.1413 34.1171 25.6392 33.8553 26.0954C33.4754 26.7565 33.5134 27.4847 33.2052 28.1124C32.5128 29.5226 32.2721 31.0332 32.0061 32.5523C31.9133 33.0879 31.6726 33.5984 31.5671 34.1341C31.4109 34.9375 31.7655 35.4564 32.5888 35.4522C33.4374 35.4522 34.3113 35.3434 35.1303 35.13C37.0344 34.632 38.7021 33.7323 40.0911 32.2761C40.9565 31.368 41.6363 30.3972 42.1471 29.2841C42.4215 28.6815 42.7255 28.0914 43.0337 27.5098C44.0385 25.6183 43.8739 23.639 43.5361 21.6304C43.1688 19.4418 41.6827 18.1446 39.918 17.0608C39.804 16.9896 39.6731 16.9352 39.5422 16.9143C38.0477 16.6716 36.5573 16.3703 35.0248 16.6088C34.1086 16.7511 33.1798 16.7846 32.2552 16.885C31.9386 16.9185 31.6135 16.9603 31.3138 17.0691C29.6714 17.6633 27.9658 18.0693 26.3868 18.8518C25.3229 19.3749 24.3772 20.0486 23.3766 20.6595C22.0974 21.4337 21.177 22.505 20.2482 23.6097C18.9267 25.1789 18.2597 27.062 17.6517 28.9535C17.1873 30.4055 16.9847 31.9329 17.4069 33.452C17.542 33.9374 17.7784 34.4144 18.057 34.8413C18.3315 35.2555 18.3821 35.674 18.1964 36.0757C17.656 37.26 16.7694 38.1053 15.4732 38.4233C14.6373 38.6283 13.7507 38.2224 13.2821 37.5069C13.2441 37.4525 13.223 37.3813 13.1765 37.3353C11.4878 35.7493 11.3527 33.6235 11.2513 31.5479C11.1416 29.3426 11.568 27.1917 12.4419 25.1371C12.7754 24.3546 13.0119 23.5302 13.2947 22.7267C13.337 22.6012 13.375 22.4673 13.4467 22.3585C14.8737 20.2285 16.4316 18.2283 18.6439 16.818C19.2012 16.4624 19.6529 15.9393 20.206 15.571C20.8899 15.1191 21.6541 14.7885 22.3465 14.3407C23.8959 13.3406 25.6311 12.7213 27.3367 12.081C28.35 11.7002 29.4688 11.5998 30.5454 11.4031C33.982 10.7754 37.4397 10.5495 40.927 10.8257C42.9028 10.9805 44.6845 11.7379 46.2803 12.8008C47.2049 13.4159 48.0198 14.2738 48.4631 15.3827C49.0837 16.9268 49.9238 18.3831 50.2489 20.0486C50.6331 22.0112 50.5909 23.9403 50.0252 25.8569C49.5185 27.5725 49.0457 29.305 48.4377 30.983C48.0915 31.9455 47.5131 32.8243 47.0192 33.7323C46.7996 34.1341 46.483 34.4939 46.2888 34.904C45.837 35.8623 44.8998 36.2682 44.1061 36.829C43.5741 37.2056 42.9915 37.5278 42.4004 37.804C41.6278 38.1597 40.8341 38.5112 40.0193 38.7497C38.8498 39.0887 38.2419 39.8544 38.4234 41.0554C38.8498 43.8591 39.5675 46.575 40.6695 49.2071C41.345 50.8224 42.6622 51.2283 44.1187 51.358C45.7146 51.5045 47.1881 50.9772 48.4588 49.9938C48.7713 49.7511 49.0415 49.4331 49.261 49.1067C50.7218 46.9265 51.735 44.5705 52.3176 42.0012C52.6258 40.6412 53.1831 39.3355 53.6855 38.0258C54.1795 36.7453 54.7072 35.4773 55.2856 34.2345C56.244 32.1882 57.3206 30.2047 58.9376 28.5727C59.4062 28.0998 59.9255 27.673 60.4574 27.2713C61.5551 26.4427 62.5937 25.4928 63.8054 24.8818C65.1437 24.2081 66.537 23.4423 68.1624 23.639C68.2595 23.6516 68.3777 23.6599 68.4622 23.6181C69.6612 23.0573 70.9784 23.2163 72.2365 23.0113C73.634 22.7811 75.0314 22.5091 76.4373 22.3711C77.2268 22.2957 78.0543 22.3962 78.8438 22.5301C79.5404 22.6472 79.8317 23.0908 79.8317 23.7896C79.8317 24.1202 79.8064 24.4634 79.7135 24.7814C79.3588 25.9991 79.038 27.2336 78.2105 28.2588C77.7883 28.7819 77.6194 29.3887 77.4632 30.0373C77.2479 30.9244 76.8468 31.7656 76.5302 32.6276C75.8209 34.5734 75.1285 36.5277 74.4023 38.4651C73.997 39.5448 73.5622 40.616 73.0893 41.6706C72.3801 43.2482 71.7552 44.8467 72.0212 46.6126C72.1099 47.2068 72.321 47.8052 72.5869 48.3492C72.7094 48.5961 73.0936 48.8305 73.3849 48.8681C74.1659 48.9728 74.9765 49.0732 75.7491 48.9769C77.003 48.8221 77.7841 47.9224 78.4216 46.9307C79.4939 45.2694 80.3679 43.5034 81.1067 41.6706C81.1827 41.4865 81.2925 41.2981 81.3093 41.1056C81.4656 39.3063 82.3057 37.7203 82.9137 36.0632C83.1712 35.3601 83.3232 34.6195 83.5512 33.9039C83.7749 33.2134 84.0451 32.5397 84.2773 31.8492C84.4335 31.3889 84.5602 30.9244 84.6869 30.4558C85.0711 29.0204 85.3201 27.5349 85.8605 26.1623C86.3756 24.8525 87.144 23.6264 87.8955 22.4255C88.229 21.894 88.8032 21.5718 89.4618 21.35C90.1542 21.1157 90.817 20.8688 91.5559 20.9106C92.8562 20.9818 93.4599 21.7601 93.1053 23.0071C92.5733 24.8986 91.9401 26.7649 91.4588 28.6689C91.2519 29.4766 90.8339 30.121 90.4371 30.8156C89.6814 32.1464 89.4534 33.6486 89.2127 35.1342C89.1494 35.5108 89.103 35.9 88.9805 36.2598C88.419 37.9044 87.8575 39.5532 87.2495 41.181C86.4981 43.2021 86.6923 45.1564 87.5873 47.0729C87.676 47.2612 87.9968 47.4872 88.1826 47.4705C89.0818 47.3784 89.9938 47.278 90.8677 47.0478C91.8176 46.7967 92.282 45.9556 92.7633 45.1857C93.9201 43.3319 94.7054 41.34 95.1149 39.1933C95.4105 37.6617 95.9044 36.1803 96.6644 34.8036C97.4665 33.3515 97.6776 31.7279 97.9985 30.1419C98.3531 28.3886 99.0328 26.7524 99.7421 25.1245C100.088 24.3295 100.722 23.7436 101.435 23.2373C102.465 22.505 103.474 22.7142 104.479 23.2373C104.606 23.3042 104.673 23.5302 104.72 23.6976C105.201 25.5012 105.201 27.3005 104.644 29.0916C104.217 30.4474 103.947 31.8785 103.331 33.1423C101.824 36.2347 101.756 39.5657 101.422 42.8548C101.325 43.8173 101.465 44.7798 102.25 45.4911C102.491 45.7129 102.786 45.9515 103.094 46.01C104.352 46.2611 105.589 46.2653 106.586 45.261C107.548 44.286 108.528 43.3277 109.457 42.3192C110.132 41.5869 110.187 40.3775 109.748 39.4736C108.933 37.7914 108.46 36.0422 108.325 34.1508C108.08 30.7361 108.853 27.5516 110.115 24.4257C110.715 22.936 111.618 21.6387 112.708 20.5089C113.248 19.9482 113.945 19.4 114.882 19.379C115.342 19.3707 115.802 19.1907 116.25 19.0485C117.107 18.7765 117.913 18.856 118.681 19.3163C118.741 19.3497 118.795 19.3916 118.859 19.4125C119.961 19.7347 120.586 20.5968 120.999 21.5341C121.489 22.6389 121.915 23.798 121.713 25.0743C121.35 27.3508 120.742 29.5435 119.775 31.6484C119.306 32.6652 118.969 33.7365 118.538 34.7743C118.217 35.5443 117.795 36.2808 117.516 37.0633C117.246 37.8249 117.086 38.6283 116.913 39.4192C116.824 39.8168 117.069 40.0762 117.402 40.2645C118.141 40.6746 118.926 40.6453 119.648 40.3148C120.455 39.9465 121.286 39.5448 121.949 38.9715C123.03 38.0383 123.748 36.8248 123.967 35.3894C124.17 34.0629 124.482 32.7824 124.989 31.5228C125.892 29.2673 126.348 26.8905 126.842 24.5094C127.362 21.9944 128.168 19.5381 128.827 17.0524C129.325 15.1651 129.768 13.2569 130.271 11.3697C130.583 10.2105 130.929 9.05556 131.322 7.92152C131.638 7.01764 132.263 6.38995 133.277 6.23093C133.956 6.12213 134.632 5.90034 135.312 5.87524C136.688 5.82084 137.389 6.5657 137.089 7.88804C136.612 9.97199 135.987 12.0183 135.426 14.0813C135.05 15.4664 134.695 16.8599 134.29 18.2366C134.024 19.1321 133.682 20.0026 133.378 20.8855C133.344 20.9818 133.302 21.0738 133.293 21.1701C133.201 22.2874 133.078 23.4005 133.04 24.5178C133.006 25.4802 133.796 25.9573 134.602 25.4175C136.595 24.0826 138.71 22.9192 140.517 21.3082C141.855 20.1114 142.531 18.5965 143.063 16.952C143.219 16.4707 143.641 15.9811 144.08 15.7091C144.583 15.3953 145.233 15.207 145.832 15.1693C146.529 15.1233 147.238 15.2948 147.939 15.3827C148.437 15.4455 148.682 15.7133 148.619 16.2364C148.433 17.7847 148.117 19.2995 147.538 20.76C146.74 22.7644 145.427 24.3378 143.646 25.5639C142.856 26.1079 142.121 26.7273 141.357 27.3047C141.074 27.5182 141.058 27.7274 141.247 28.0329C141.67 28.7108 142.071 29.4012 142.442 30.1084C142.784 30.7612 143.05 31.4517 143.396 32.1003C143.641 32.5606 143.696 33.0084 143.561 33.5022C143.046 35.3727 142.535 37.2432 142.02 39.1138C141.83 39.8042 141.737 40.4863 142.062 41.1726C142.455 42.0012 143.886 42.4782 144.769 42.202C147.69 41.2814 149.193 38.9631 150.591 36.5318C150.696 36.3477 150.781 36.1259 150.785 35.9167C150.848 34.1592 151.587 32.5732 152.153 30.9621C152.621 29.6314 153.124 28.3258 153.212 26.9072C153.335 24.9572 153.934 23.1368 154.682 21.3584C155.289 19.9063 155.91 18.4626 156.539 17.0231C156.881 16.2448 157.485 15.8347 158.346 15.6673C159.309 15.479 160.242 15.4078 161.196 15.6715C161.58 15.7803 161.817 15.9811 161.795 16.3577C161.753 17.0859 161.825 17.8726 161.567 18.5254C160.221 21.9024 159.587 25.4719 158.536 28.9284C157.844 31.2006 157.109 33.4603 156.383 35.72C155.885 37.2642 155.927 38.7748 156.594 40.2687C156.83 40.8002 157.185 41.0638 157.78 41.1182C158.971 41.2312 159.98 40.8964 160.812 40.0469C161.969 38.8585 163.21 37.7328 164.096 36.3142C164.481 35.6991 164.848 35.0379 165.05 34.3475C165.819 31.7488 166.494 29.1292 167.25 26.5264C167.487 25.7146 167.845 24.9362 168.192 24.1621C168.567 23.3251 168.943 22.4799 169.42 21.6973C171.371 18.4961 173.798 15.6966 177.091 13.8219C179.025 12.7213 181.203 12.3489 183.449 12.9975C184.049 13.169 184.653 13.3281 185.265 13.4536C186.401 13.6921 187.042 13.395 187.405 12.3196C187.975 10.6248 188.423 8.89236 188.989 7.19758C189.685 5.12619 190.403 3.0548 191.577 1.18845C191.695 0.995957 191.885 0.820202 192.079 0.707217C193.223 0.0544146 194.452 -0.142263 195.739 0.150661C196.491 0.322231 196.791 0.703032 196.829 1.45627C196.858 2.07559 196.748 2.6447 196.47 3.23892C196.157 3.90428 195.959 4.68262 195.946 5.41493C195.921 6.58662 195.461 7.5742 195.001 8.60362C193.768 11.3697 192.919 14.2487 192.548 17.2616C192.476 17.86 192.311 18.5128 191.978 18.9982C191.087 20.2955 190.538 21.6973 190.129 23.1996C189.618 25.0701 188.854 26.8737 188.414 28.7568C187.98 30.6022 187.291 32.4184 187.384 34.36C187.405 34.8287 187.422 35.3016 187.511 35.7577C187.756 37.0256 188.794 37.7203 190.082 37.5069C190.749 37.3981 191.353 37.1386 191.813 36.6406C192.708 35.6614 193.65 34.7157 194.443 33.6612C194.946 32.9958 195.216 32.1547 195.579 31.3889C195.659 31.2257 195.68 31.0332 195.748 30.8659C197.238 27.0453 198.682 23.208 200.51 19.5297C200.873 18.7932 201.211 18.0441 201.532 17.2909C202.098 15.9518 203.056 14.9224 204.069 13.8972C205.479 12.4702 207.176 11.4701 208.81 10.3528C210.892 8.93002 213.197 8.91328 215.553 8.96768C216.448 8.9886 217.343 8.94676 218.234 8.99279C218.884 9.02626 219.534 9.14762 220.18 9.25223C220.522 9.30663 220.708 9.54097 220.716 9.8883C220.733 11.0433 220.56 12.1647 219.969 13.1732C219.627 13.7549 219.086 14.1901 218.411 14.2863C217.081 14.4705 215.73 14.7132 214.4 14.6671C212.652 14.6044 211.457 15.2697 210.748 16.7929C210.398 17.5462 210.111 18.3413 209.891 19.1405C209.503 20.534 210.453 22.2079 211.859 22.6431C212.758 22.9234 213.674 23.1745 214.594 23.367C215.553 23.5679 216.152 24.1495 216.714 24.8944C218.073 26.698 218.006 28.7903 217.968 30.8491C217.947 31.9539 217.617 33.0502 217.461 34.155C217.41 34.519 217.474 34.8998 217.486 35.2723C217.845 35.2597 218.229 35.3267 218.554 35.2221C219.027 35.0672 219.471 34.8036 219.905 34.5525C221.767 33.4813 222.709 31.686 223.604 29.8657C223.963 29.1292 224.233 28.3509 224.545 27.5935C224.672 27.2838 224.794 26.97 224.934 26.6687C225.563 25.2961 226.158 25.0408 227.526 25.6811C228.159 25.974 228.746 26.3925 229.287 26.8361C229.873 27.3131 230.042 28.0329 229.992 28.7484C229.911 29.8448 229.755 30.9412 229.633 32.0334C229.236 35.5066 228.535 38.9003 227.057 42.1016C226.846 42.5577 226.622 43.0055 226.399 43.4574C224.461 47.3659 222.008 50.927 219.129 54.2161C217.659 55.8941 216.435 57.7814 214.708 59.2335C214.016 59.8151 213.286 60.355 212.568 60.9115C212.412 60.6981 212.31 60.4261 212.179 60.4135C211.977 60.3926 211.736 60.514 211.546 60.6311C211.002 60.9617 210.917 61.104 210.875 61.6145C211.031 61.6396 211.192 61.6689 211.428 61.7108C210.229 62.7946 209.114 63.9286 207.675 64.6107C205.787 65.5021 203.871 66.339 201.937 67.1215C199.818 67.9835 197.669 68.7744 195.52 69.5653C194.874 69.8039 194.19 69.9294 193.523 70.101C192.396 70.3897 191.235 70.578 190.154 70.9839C188.208 71.712 186.177 72.005 184.146 72.323C182.618 72.5657 181.098 72.8921 179.574 73.1557C178.713 73.3022 177.839 73.5156 176.977 73.4947C174.508 73.4361 172.109 73.909 169.695 74.2898C164.958 75.0305 160.191 75.4824 155.408 75.813C152.528 76.0097 149.666 76.3863 146.791 76.6164C143.629 76.8717 140.458 77.014 137.296 77.2776C135.582 77.4199 133.885 77.7086 132.179 77.9304C130.355 78.1689 128.531 78.4033 126.707 78.6376C126.538 78.6585 126.37 78.692 126.205 78.6836C124.368 78.5665 122.591 78.9305 120.788 79.2109C117.989 79.6461 115.169 80.006 112.323 79.8972C108.844 79.7633 105.421 80.2571 101.984 80.6421C98.7669 81.0061 95.554 81.4078 92.3327 81.7593C88.0559 82.2238 83.7792 82.6716 79.4982 83.0942C77.9529 83.2449 76.3866 83.1989 74.8541 83.4206C71.257 83.9479 67.6304 84.0902 64.0165 84.3831C62.7584 84.4835 61.4918 84.6091 60.2506 84.8434C58.1523 85.2368 56.0287 85.3288 53.9135 85.5046C51.507 85.7055 49.1343 86.1155 46.787 86.693C45.2544 87.0655 43.667 87.2412 42.1049 87.4923C39.994 87.8354 37.8788 88.1744 35.7636 88.505C33.8004 88.8146 31.8288 89.0825 29.8741 89.434C27.4718 89.8692 25.0189 90.1788 22.6927 90.886C18.4708 92.1623 14.2151 93.3466 10.1072 94.9828C8.62956 95.5686 7.287 96.3344 6.03309 97.2801C4.84252 98.1757 3.52107 98.7029 2.03919 98.9958C0.873948 99.226 -0.337734 97.8409 0.088677 96.665C0.240665 96.2424 0.401097 95.8155 0.56575 95.3971C1.01327 94.2421 1.4819 93.0955 1.90409 91.9364C3.79127 86.7391 5.87266 81.6129 8.62533 76.8089C10.0861 74.2605 12.2097 72.2477 15.0046 70.9965C17.3942 69.9252 19.864 69.4314 22.4647 69.4021C23.0937 69.3938 23.7524 69.2933 24.3476 69.0883C26.4079 68.3727 28.5611 68.3811 30.6931 68.176C34.9615 67.7659 39.2298 67.3726 43.4264 66.4687C44.1019 66.3222 44.7942 66.272 45.4782 66.1674C46.3775 66.0293 47.2725 65.841 48.176 65.7448C50.422 65.5062 52.6681 65.1798 54.9226 65.1171C57.8145 65.0417 60.677 64.6944 63.5479 64.4433C66.575 64.1797 69.6063 63.9956 72.6334 63.7738C75.7787 63.5395 78.9324 63.3553 82.0735 63.0457C84.1845 62.8364 86.2743 62.3719 88.3852 62.1669C91.3068 61.8865 94.241 61.761 97.1668 61.5392C99.8772 61.3342 102.579 61.0914 105.29 60.8739C106.531 60.7734 107.772 60.627 109.013 60.6228C111.931 60.6144 114.848 60.6772 117.765 60.7065C118.065 60.7065 118.378 60.6814 118.669 60.606C121.89 59.7482 125.175 59.3381 128.493 59.5682C130.608 59.7147 132.66 59.4636 134.737 59.2418C135.919 59.1121 137.131 59.0703 138.318 59.1623C139.96 59.2879 141.547 59.0159 143.147 58.7899C146.335 58.3422 149.51 57.773 152.756 57.9153C155.247 58.0241 157.692 57.7437 160.124 57.1286C161.445 56.7938 162.864 56.8315 164.244 56.7604C166.418 56.6474 168.601 56.6934 170.763 56.48C173.325 56.2247 175.867 55.7267 178.421 55.392C182.149 54.9024 185.886 54.4672 189.622 54.0111C192.434 53.6679 195.25 53.3248 198.061 52.9816C198.213 52.9649 198.361 52.9398 198.513 52.9398C201.017 52.923 203.487 52.5715 205.876 51.8727C207.126 51.5086 208.325 50.9144 209.473 50.2909C211.5 49.1904 213.492 48.0312 215.451 46.8135C217.841 45.3321 219.981 43.5411 221.691 41.3065C222.341 40.4528 222.814 39.4653 223.367 38.5363C223.329 38.5154 223.291 38.4986 223.258 38.4777L223.266 38.4484ZM184.594 20.9399C184.64 18.7388 182.934 17.3286 181.039 17.6926C180.46 17.8056 179.886 17.9353 179.308 18.04C178.151 18.2492 177.332 18.8392 176.779 19.9021C176.327 20.7725 175.749 21.5885 175.149 22.3711C174.415 23.3335 173.866 24.3629 173.604 25.5472C173.46 26.2 173.245 26.8361 173.047 27.4721C172.413 29.4975 171.78 31.5228 171.134 33.5482C170.822 34.5316 170.919 35.4648 171.426 36.3561C171.848 37.101 172.274 37.8416 172.713 38.5698C172.785 38.6869 172.929 38.7706 173.055 38.8376C174.052 39.3565 175.027 39.5615 175.93 38.6535C175.964 38.62 176.023 38.6074 176.061 38.5781C176.716 38.0634 177.433 37.6115 178.007 37.0215C178.81 36.1971 179.506 35.2723 180.241 34.3809C180.486 34.0838 180.781 33.8035 180.921 33.4603C181.355 32.3765 181.723 31.2676 182.115 30.167C182.212 29.8992 182.259 29.6021 182.407 29.3678C182.989 28.4597 183.264 27.4512 183.449 26.405C183.5 26.1289 183.593 25.8527 183.686 25.5849C184.256 23.9738 184.425 22.2957 184.585 20.9232L184.594 20.9399ZM57.4177 45.4786C57.4177 45.4786 57.3924 45.4786 57.3797 45.4786C57.4304 46.2611 57.4641 47.0478 57.5401 47.8304C57.6203 48.6338 57.975 48.9937 58.7687 49.1276C59.9255 49.3243 61.0612 49.2196 62.0195 48.5376C62.733 48.0312 63.4212 47.4286 63.9574 46.7423C64.7553 45.7338 65.3548 44.5705 66.1401 43.5537C66.8283 42.6623 67.3813 41.7375 67.7444 40.6788C68.1835 39.3983 68.5339 38.0509 69.2094 36.8959C69.9989 35.5443 70.5182 34.1173 71.0164 32.6652C71.2402 32.0166 71.4597 31.3638 71.6159 30.6985C71.7806 29.9913 71.4639 29.4975 70.7631 29.2673C70.5098 29.1836 70.2396 29.1292 69.9736 29.1125C68.3819 29.0079 66.8494 29.305 65.376 29.8867C64.8947 30.075 64.3754 30.2549 63.9743 30.5646C62.4797 31.7112 61.3989 33.1716 60.6474 34.904C59.9846 36.4398 59.1782 37.9128 58.5069 39.4444C58.0763 40.4277 57.6457 41.4446 57.4557 42.4866C57.2784 43.4532 57.4177 44.4785 57.4177 45.4786ZM125.082 69.0925C125.082 69.0925 125.044 69.0925 125.027 69.0925C125.027 69.5946 125.027 70.0926 125.027 70.5947C125.027 71.1136 125.019 71.6325 125.027 72.1472C125.04 72.8126 125.415 73.1055 126.091 72.9925C126.75 72.8837 127.408 72.6996 128.071 72.6913C129.68 72.6661 130.781 71.0216 130.832 69.8039C130.883 68.6573 130.832 67.4939 130.705 66.3557C130.608 65.4728 130.195 64.6065 129.354 64.2383C128.261 63.7612 127.058 63.7194 125.88 64.0249C125.314 64.1713 125.086 64.4977 125.086 65.092C125.082 66.4269 125.086 67.7617 125.086 69.0966L125.082 69.0925ZM174.613 63.1796C174.613 63.1796 174.643 63.1796 174.655 63.1838C174.706 63.9663 174.782 64.7446 174.803 65.5272C174.85 67.0671 175.533 68.0338 176.986 68.5652C178.776 69.218 181.026 67.5065 180.878 65.6276C180.832 65.0334 180.866 64.4266 180.887 63.8282C180.908 63.2633 181.03 62.69 180.988 62.1292C180.883 60.786 179.945 59.7691 178.438 60.0453C177.86 60.1499 177.273 60.2336 176.694 60.3382C175.449 60.56 175.035 60.9575 174.773 62.192C174.706 62.5184 174.664 62.849 174.613 63.1796ZM97.9309 69.6155H97.8423C97.9014 70.5696 97.9436 71.5195 98.0196 72.4695C98.0787 73.2311 98.1336 73.9927 98.5811 74.6748C98.8428 75.0681 99.5479 75.5075 100.012 75.428C100.54 75.3401 101.072 75.2522 101.587 75.1183C101.87 75.043 102.144 74.8965 102.393 74.7333C103.094 74.2689 103.445 73.6621 103.605 72.7833C103.951 70.8919 103.947 69.0004 103.951 67.0964C103.951 66.9039 103.884 66.703 103.816 66.5147C103.656 66.0628 103.36 65.9289 102.904 66.0753C102.132 66.3181 101.895 66.7281 101.916 67.5483C101.954 69.0046 102.182 70.4483 101.959 71.9296C101.849 72.6578 101.473 72.9507 100.95 73.2018C100.443 73.4445 100.025 73.1432 99.9954 72.5741C99.9321 71.3103 99.873 70.0466 99.8012 68.7828C99.7717 68.2346 99.7379 67.6781 99.6492 67.1382C99.6112 66.9123 99.4593 66.5482 99.3157 66.5273C98.9737 66.4771 98.5853 66.5357 98.256 66.6612C97.9014 66.7951 97.7663 67.1299 97.8 67.5274C97.8549 68.2262 97.8887 68.9251 97.9309 69.6239V69.6155ZM49.4805 79.9976C49.5016 80.0562 49.5185 80.1148 49.5396 80.1692C50.27 79.8512 51.0553 79.6126 51.7139 79.1858C52.1108 78.9305 52.5076 78.3991 52.5541 77.9555C52.6554 77.0391 52.5963 76.0892 52.2248 75.202C52.039 74.7585 51.7393 74.4655 51.2537 74.3316C50.7007 74.181 50.156 74.001 49.6241 73.8002C49.1723 73.6286 49.0921 73.1223 49.4974 72.867C49.7972 72.6787 50.1645 72.5699 50.5149 72.4904C50.84 72.4192 51.1904 72.4736 51.5197 72.4151C52.1319 72.3063 52.5794 71.6074 52.5034 70.9337C52.4654 70.578 51.9123 70.3102 51.2706 70.4315C50.2616 70.6199 49.2652 70.8542 48.2731 71.1095C48.0282 71.1722 47.8044 71.3647 47.6102 71.5405C46.6477 72.4109 46.8756 73.4989 47.0994 74.5701C47.1289 74.7166 47.2683 74.8882 47.3991 74.951C48.0367 75.2522 48.691 75.5117 49.3328 75.7962C49.679 75.9511 50.0336 76.0934 50.346 76.3026C50.7091 76.5453 50.9709 76.8926 50.7809 77.3655C50.5867 77.8593 50.0674 78.1564 49.5143 78.0434C48.9739 77.9346 48.4504 77.7379 47.9184 77.5831C47.4667 77.4534 47.1289 77.6082 46.8841 77.9932C46.3648 78.7966 46.9601 79.9474 47.9269 79.9851C48.4462 80.006 48.9655 79.9851 49.4848 79.9851L49.4805 79.9976ZM73.7522 75.0012C73.7522 75.0012 73.7902 75.0012 73.8113 75.0012C73.8113 75.6707 73.7986 76.3361 73.8113 77.0056C73.8239 77.5245 74.0984 77.7672 74.6177 77.7379C74.8372 77.7254 75.0525 77.6835 75.2678 77.6459C75.614 77.5831 75.7998 77.3738 75.8082 77.0223C75.8251 76.1226 75.8378 75.223 75.8589 74.3233C75.8927 73.1432 75.9391 71.9589 75.9644 70.7789C75.9729 70.465 76.1122 70.3646 76.4035 70.3855C76.5217 70.3939 76.6399 70.3855 76.7582 70.3688C77.3366 70.2976 77.6405 69.9587 77.6321 69.4021C77.6236 68.7577 77.4421 68.5736 76.7413 68.5317C76.5217 68.5192 76.3022 68.5192 76.0869 68.5401C74.8836 68.6656 73.6804 68.787 72.4814 68.9418C72.3167 68.9627 72.055 69.1469 72.0508 69.2682C72.0296 69.6574 72.0381 70.08 72.1774 70.4357C72.2323 70.5738 72.6672 70.5655 72.9289 70.6199C72.9796 70.6282 73.0302 70.6282 73.0809 70.6324C73.7859 70.6659 73.8619 70.7412 73.9126 71.4526C73.9168 71.5363 73.9211 71.62 73.9126 71.7037C73.8577 72.8042 73.8071 73.9048 73.7522 75.0054V75.0012ZM113.049 31.7697C113.049 32.0543 113.024 32.3388 113.054 32.6192C113.113 33.1716 113.594 33.4394 114.012 33.0963C114.426 32.7531 114.823 32.3221 115.051 31.8451C115.557 30.778 115.979 29.6691 116.393 28.5601C116.659 27.8446 116.9 27.1081 117.052 26.3632C117.195 25.6518 116.803 25.3003 116.089 25.4844C115.19 25.7188 114.401 26.2753 114.071 27.0997C113.48 28.5852 113.028 30.1335 113.054 31.7697H113.049ZM151.747 68.2932C151.747 68.7954 151.764 69.2933 151.747 69.7955C151.714 70.5738 152.136 70.917 152.891 70.6868C153.373 70.5403 153.592 70.1763 153.592 69.6992C153.592 67.2973 153.592 64.8953 153.55 62.4933C153.546 62.2506 153.314 61.8865 153.098 61.7986C152.849 61.6982 152.423 61.7443 152.22 61.9075C151.984 62.0999 151.785 62.4807 151.781 62.7862C151.743 64.6191 151.76 66.4561 151.76 68.2932H151.747ZM140.466 75.4406C140.732 75.3025 141.045 75.2439 141.091 75.1016C141.222 74.6873 140.884 74.3651 140.437 74.3609C140.272 74.3609 140.074 74.3065 139.943 74.2061C139.66 73.9969 139.462 74.0931 139.229 74.2814C138.887 74.5576 138.537 74.838 138.157 75.0556C137.857 75.2271 137.57 75.361 137.718 75.7628C137.836 76.0975 138.355 76.2607 138.659 76.0055C139.141 75.5996 139.512 75.7711 139.93 76.0724C140.032 76.1478 140.234 76.1896 140.331 76.1394C140.433 76.085 140.488 75.9009 140.504 75.7711C140.521 75.6289 140.471 75.4824 140.466 75.4406ZM34.0706 41.294C33.9609 40.9466 33.868 40.6621 33.7793 40.3775C33.6273 40.6077 33.4796 40.842 33.3276 41.0722C33.3107 41.0973 33.2896 41.1224 33.2727 41.1475C33.2558 41.1098 33.2389 41.0722 33.2263 41.0345C33.0278 41.114 32.7281 41.1391 32.6521 41.2814C32.4579 41.6538 32.897 42.1644 33.3234 42.1727C33.7329 42.1811 34.134 42.2397 34.4633 42.5619C34.5773 42.6749 34.8264 42.6707 35.0164 42.6707C35.0797 42.6707 35.2063 42.4824 35.1852 42.4196C35.1346 42.2606 35.0248 42.1183 34.9192 41.9844C34.8559 41.9049 34.6828 41.8547 34.687 41.7961C34.7039 41.2981 34.3788 41.273 34.0749 41.294H34.0706ZM15.8574 76.9261C15.8574 76.9261 15.811 77.127 15.8701 77.2651C15.9545 77.4617 16.0939 77.7379 16.2458 77.7672C16.4063 77.7965 16.706 77.604 16.7736 77.4408C16.8791 77.1855 16.8707 76.8675 16.8454 76.5788C16.7905 75.9343 16.6258 75.8632 16.0601 76.1812C16.0347 76.1938 16.001 76.1938 15.9714 76.198C15.9461 76.0724 15.925 75.9469 15.887 75.7586C15.5112 76.0389 15.1777 76.2858 14.8484 76.5369C14.612 76.721 14.6964 76.9554 14.9075 76.993C15.1988 77.0433 15.5155 76.9596 15.849 76.9303L15.8574 76.9261ZM30.4103 87.6848C30.0641 87.8187 29.7474 87.9317 29.4392 88.0572C28.8186 88.3083 28.1896 88.5552 27.5816 88.8314C27.4676 88.8858 27.417 89.0825 27.3367 89.2122C27.4972 89.2624 27.6576 89.3545 27.818 89.3545C27.9574 89.3545 28.0967 89.2498 28.2402 89.2038C28.8271 89.0155 29.4223 88.8397 30.005 88.6347C30.2372 88.5552 30.4694 88.4464 30.6636 88.2957C30.7522 88.2288 30.8071 88.0112 30.7649 87.9066C30.7185 87.802 30.5369 87.7517 30.4103 87.6764V87.6848ZM120.577 72.8754C120.248 73.0009 120.011 73.1223 119.758 73.1725C119.551 73.2143 119.306 73.1181 119.112 73.1767C118.99 73.2143 118.825 73.4445 118.846 73.5617C118.884 73.7667 119.032 73.9634 119.163 74.1391C119.222 74.2186 119.353 74.2772 119.458 74.2898C119.995 74.3609 120.214 74.0931 120.125 73.5407C120.336 73.3943 120.531 73.2604 120.738 73.1181C121.004 73.4277 121.286 73.7583 121.569 74.0889C121.645 74.181 121.704 74.3149 121.801 74.3525C121.856 74.3735 122.051 74.2354 122.046 74.181C122.038 74.0471 121.975 73.8295 121.886 73.8002C121.025 73.5282 120.797 72.7624 120.463 72.0761C120.02 72.2226 120.016 72.3104 120.573 72.8712L120.577 72.8754ZM184.492 37.2851C184.442 37.0507 184.425 36.8582 184.357 36.6825C184.298 36.5235 184.214 36.3142 184.087 36.264C183.952 36.2096 183.673 36.2598 183.593 36.3645C183.454 36.557 183.281 36.8875 183.361 37.0424C183.547 37.4022 183.842 37.7328 184.155 37.9965C184.294 38.1136 184.589 38.0509 184.817 38.0592C185.138 38.0718 185.299 37.8835 185.278 37.5989C185.24 37.1428 184.927 37.147 184.488 37.2893L184.492 37.2851ZM5.69534 95.8908C5.61091 95.8448 5.42936 95.69 5.35759 95.7276C4.78764 96.0247 4.20502 96.3219 3.68995 96.7027C3.44086 96.8868 3.54218 97.2048 3.85882 97.3345C4.22191 97.481 5.71645 96.3679 5.69534 95.8908ZM77.7165 25.476C77.6996 25.0325 77.5772 24.7479 77.1846 24.7186C76.775 24.6852 76.6399 24.9697 76.6062 25.317C76.5935 25.4468 76.5471 25.5932 76.5851 25.7104C76.6442 25.9071 76.7328 26.2167 76.8553 26.2377C77.0537 26.2753 77.3366 26.1665 77.4885 26.0242C77.6405 25.8778 77.6701 25.61 77.7207 25.476H77.7165ZM120.695 74.7166C120.624 74.6497 120.48 74.4069 120.294 74.3735C119.902 74.3023 119.467 74.7543 119.441 75.1853C119.42 75.5326 119.577 75.767 119.948 75.8004C120.358 75.8339 120.657 75.4657 120.695 74.7166ZM112.889 39.7708C112.948 39.7247 113.163 39.6494 113.206 39.5197C113.244 39.3983 113.109 39.2142 113.033 39.0677C112.948 38.9045 112.864 38.7413 112.754 38.5949C112.653 38.461 112.526 38.2685 112.399 38.2559C112.264 38.2475 112.057 38.3898 111.986 38.5237C111.656 39.1138 112.074 39.754 112.893 39.7708H112.889ZM226.758 30.619C227.48 30.5185 227.661 30.1796 227.319 29.5519C227.273 29.464 227.273 29.3426 227.209 29.2757C227.074 29.1376 226.91 29.0246 226.758 28.8991C226.665 29.0706 226.483 29.2506 226.5 29.4138C226.538 29.8197 226.665 30.2172 226.758 30.619ZM215.971 12.8845C216.422 12.8636 216.984 12.3238 216.916 12.0434C216.887 11.922 216.68 11.7756 216.541 11.7588C216.216 11.7254 215.633 12.2694 215.696 12.5414C215.73 12.692 215.912 12.8092 215.975 12.8803L215.971 12.8845ZM27.1045 88.8021C27.4381 88.5594 27.704 88.3669 27.97 88.1744C27.8011 88.0489 27.6407 87.8229 27.4634 87.8145C27.1045 87.7978 26.7583 87.9526 26.6866 88.3543C26.6697 88.4506 26.8977 88.5887 27.1003 88.8063L27.1045 88.8021ZM210.432 61.1626C210.676 60.8404 210.875 60.6437 210.968 60.4052C210.989 60.3466 210.676 60.0578 210.503 60.0453C210.182 60.0244 209.895 60.2294 209.929 60.5767C209.942 60.7399 210.182 60.8864 210.432 61.1626ZM141.851 73.6746C141.539 73.4361 141.345 73.1892 141.218 73.2143C141.032 73.2562 140.808 73.478 140.762 73.6621C140.737 73.7709 141.011 74.068 141.167 74.0805C141.34 74.0931 141.53 73.8797 141.851 73.6746ZM25.7915 89.4925C25.5298 89.2875 25.344 89.0406 25.2342 89.0699C25.04 89.1201 24.8923 89.3419 24.7234 89.4925C24.8627 89.6306 25.002 89.8775 25.1371 89.8775C25.3187 89.8775 25.5002 89.6809 25.7957 89.4925H25.7915ZM4.48366 95.531C4.23879 95.3427 4.0277 95.1376 3.99815 95.1585C3.79549 95.3134 3.61818 95.51 3.47463 95.7235C3.45774 95.7486 3.74483 96.0582 3.79549 96.0331C4.01081 95.9327 4.19235 95.7569 4.48366 95.531ZM214.075 12.5414C214.282 12.2986 214.51 12.148 214.514 11.989C214.514 11.8676 214.235 11.6207 214.105 11.6333C213.932 11.65 213.78 11.8676 213.619 12.0015C213.742 12.148 213.868 12.2945 214.079 12.5414H214.075ZM137.777 73.1767C137.549 73.478 137.359 73.6453 137.304 73.8462C137.279 73.9299 137.536 74.0931 137.663 74.2228C137.811 74.0554 138.001 73.909 138.085 73.7123C138.123 73.6286 137.942 73.4487 137.777 73.1767ZM142.539 76.1059C142.586 76.0682 142.632 76.0306 142.674 75.9929C142.582 75.7921 142.539 75.5201 142.383 75.4071C142.244 75.3108 141.978 75.3862 141.771 75.3903C141.847 75.5661 141.881 75.7837 142.012 75.905C142.138 76.0222 142.362 76.0431 142.544 76.1059H142.539ZM213.07 36.1259C212.851 36.4189 212.64 36.5821 212.631 36.7494C212.627 36.8792 212.88 37.1302 213.011 37.1261C213.159 37.1177 213.383 36.9043 213.416 36.7494C213.446 36.6114 213.252 36.4314 213.074 36.1301L213.07 36.1259ZM210.018 62.464C209.769 62.2799 209.579 62.0539 209.49 62.0874C209.313 62.1585 209.14 62.351 209.081 62.531C209.055 62.6147 209.33 62.9118 209.414 62.8908C209.6 62.8448 209.756 62.6607 210.018 62.4598V62.464ZM226.441 31.4768C226.213 31.2425 226.069 31.0918 225.926 30.9412C225.803 31.0709 225.559 31.2425 225.584 31.3262C225.643 31.5103 225.825 31.6735 225.993 31.7948C226.036 31.8241 226.226 31.6358 226.441 31.481V31.4768ZM15.8321 78.0434C15.5788 77.8593 15.4268 77.6668 15.2959 77.6793C15.1524 77.6919 15.0215 77.8969 14.8906 78.0141C15.0215 78.1564 15.1313 78.374 15.2917 78.4158C15.4015 78.4451 15.5788 78.2317 15.8363 78.0434H15.8321ZM91.7079 73.9466C91.425 73.7542 91.2814 73.5826 91.1379 73.5826C91.0155 73.5826 90.7833 73.7918 90.7917 73.8881C90.8086 74.0345 90.9775 74.2437 91.1126 74.2689C91.2392 74.294 91.4081 74.1182 91.7079 73.9466ZM75.7576 25.5681C75.6014 25.7606 75.4156 25.9071 75.4409 25.9782C75.4958 26.1163 75.652 26.2837 75.7829 26.3004C75.9011 26.3172 76.0447 26.1456 76.1755 26.0577C76.0573 25.9196 75.9391 25.7815 75.7533 25.5681H75.7576ZM113.497 39.097C113.662 38.8752 113.826 38.7455 113.835 38.6074C113.839 38.5028 113.649 38.3856 113.543 38.2727C113.425 38.3898 113.248 38.4944 113.206 38.6325C113.18 38.7288 113.349 38.8752 113.497 39.097ZM34.7715 43.3277C34.5646 43.177 34.4253 43.0013 34.3324 43.0222C34.1931 43.0557 34.0369 43.2063 33.9904 43.3444C33.9693 43.4114 34.1762 43.6457 34.2775 43.6415C34.4168 43.6374 34.5477 43.4783 34.7715 43.3277Z" fill="black"/>
</svg>
