<svg width="33" height="33" viewBox="0 0 33 33" fill="none" xmlns="http://www.w3.org/2000/svg">
<path d="M16.9292 25.2874C18.9292 25.2874 22.2417 25.2624 26.0417 23.0624C29.8417 20.8624 31.0792 18.1249 31.4667 16.7124C31.5024 16.5852 31.5122 16.4521 31.4955 16.321C31.4788 16.1899 31.4359 16.0635 31.3695 15.9492C31.3031 15.835 31.2144 15.7353 31.1087 15.6559C31.003 15.5766 30.8824 15.5193 30.7542 15.4874C29.8417 15.2499 28.2417 15.0374 26.1917 15.5249" stroke="black" stroke-width="2" stroke-linecap="round" stroke-linejoin="round"/>
<path d="M7.66667 15.5117C5.61667 15.0367 4.01667 15.2492 3.10417 15.4867C2.97593 15.5186 2.85539 15.5759 2.7497 15.6552C2.644 15.7345 2.55531 15.8343 2.48887 15.9485C2.42243 16.0627 2.37959 16.1891 2.36289 16.3202C2.3462 16.4513 2.35598 16.5844 2.39167 16.7117C2.77917 18.1242 4.01667 20.8742 7.81667 23.0617C11.6167 25.2492 14.9292 25.2867 16.9292 25.2867" stroke="black" stroke-width="2" stroke-linecap="round" stroke-linejoin="round"/>
<path d="M16.9292 25.2872C16.9292 25.2872 21.9292 22.5622 21.9292 15.2872C21.9292 9.58716 18.8542 6.68716 17.5292 5.68716C17.3553 5.55923 17.1451 5.49023 16.9292 5.49023C16.7133 5.49023 16.5031 5.55923 16.3292 5.68716C15.0042 6.68716 11.9292 9.58716 11.9292 15.2872C11.9292 22.5622 16.9292 25.2872 16.9292 25.2872Z" stroke="black" stroke-width="2" stroke-linecap="round" stroke-linejoin="round"/>
<path d="M16.9292 25.2871C18.4292 24.9621 22.4667 22.6871 24.8917 18.4871C27.3167 14.2871 26.7167 10.9496 26.2417 9.48709C26.1691 9.25188 26.0101 9.05285 25.7968 8.92997C25.5835 8.80709 25.3316 8.76944 25.0917 8.82459C23.6565 9.14602 22.3139 9.79167 21.1667 10.7121" stroke="black" stroke-width="2" stroke-linecap="round" stroke-linejoin="round"/>
<path d="M12.6917 10.7121C11.5445 9.79167 10.2019 9.14602 8.7667 8.82459C8.52678 8.76944 8.27489 8.80709 8.06158 8.92997C7.84827 9.05285 7.68934 9.25188 7.6167 9.48709C7.1417 10.9496 6.5417 14.2996 8.9667 18.4871C11.3917 22.6746 15.4292 24.9621 16.9292 25.2871" stroke="black" stroke-width="2" stroke-linecap="round" stroke-linejoin="round"/>
</svg>
